<svg xmlns="http://www.w3.org/2000/svg" width="173.194" height="160.635" viewBox="0 0 173.194 160.635"><defs><style>.a{fill:#e8f5f9;opacity:0.66;}.b{fill:#fdd7ad;}.c{fill:#cbb292;}.d{fill:#90bae1;}.e{fill:#fee7ce;}.f{fill:#b0d3f0;}.g{fill:#35495e;}.h{fill:#e6e7e8;}.i{fill:#ff4232;}.j{fill:#05bd59;}.k,.m{fill:#fff;}.k{stroke:#2460d0;stroke-width:1.5px;}.l{fill:#f2d543;}.n,.q{fill:#ff2ec9;}.o,.q{stroke:none;}.p{fill:none;}</style></defs><g transform="translate(-123.806 -133)"><ellipse class="a" cx="59" cy="59.5" rx="59" ry="59.5" transform="translate(152 145)"/><g transform="translate(199.773 145.617) rotate(34)"><path class="b" d="M.047,18.657l11.971-5.084A7.035,7.035,0,0,0,6.816.5L0,3.381Zm0,0" transform="translate(70.273 32.801)"/><path class="c" d="M12.02,10.192.047,15.276,0,0H.023L.047,10.59,12.02,5.505a6.971,6.971,0,0,0,4.006-4.217A7,7,0,0,1,12.02,10.192Zm0,0" transform="translate(70.273 36.27)"/><path class="b" d="M14.058,0,63.2,39.832s-2.343,4.685-11.614,9.953a4.74,4.74,0,0,0-2.444,4.1v9.372a4.685,4.685,0,0,1-4.686,4.686H16.338a4.686,4.686,0,0,1-4.686-4.686V56.347c0-4.292-3.024-7.926-5.173-11.412C2.4,38.311.562,38,0,30.459Zm0,0" transform="translate(0.029 67.948)"/><path class="d" d="M56.233,100.328v.422a2.768,2.768,0,0,1-.024.445,6.994,6.994,0,0,1-7.006,6.585H7.029A7.029,7.029,0,0,1,0,100.75V7.029A7.029,7.029,0,0,1,7.029,0H49.2a7.029,7.029,0,0,1,7.029,7.029Zm0,0" transform="translate(16.43 0)"/><path class="e" d="M4.686,4.685H2.343A2.343,2.343,0,1,1,2.343,0H4.686a2.343,2.343,0,1,1,0,4.685Zm0,0" transform="translate(18.773 124.18)"/><path class="e" d="M9.373,4.685H2.343A2.343,2.343,0,1,1,2.343,0h7.03a2.343,2.343,0,1,1,0,4.685Zm0,0" transform="translate(30.488 124.18)"/><path class="f" d="M55.835,4.733C46.345,13.449,14.644,45.971.562,103.491A6.684,6.684,0,0,1,0,100.75V7.03A7.029,7.029,0,0,1,7.03,0H49.2a6.974,6.974,0,0,1,6.631,4.733Zm0,0" transform="translate(16.43 0)"/><path class="g" d="M37.487,0H35.145A2.343,2.343,0,0,0,32.8,2.343V4.686a4.687,4.687,0,0,1-4.686,4.686H9.372A4.687,4.687,0,0,1,4.685,4.686V2.343A2.343,2.343,0,0,0,2.342,0H0" transform="translate(25.802 0)"/><path class="g" d="M21.087,4.686H2.343A2.343,2.343,0,0,1,2.343,0H21.087a2.343,2.343,0,0,1,0,4.686Zm0,0" transform="translate(32.831 96.063)"/><path class="h" d="M2.343,7.029A2.343,2.343,0,0,1,0,4.686V2.343a2.343,2.343,0,1,1,4.685,0V4.686A2.342,2.342,0,0,1,2.343,7.029Zm0,0" transform="translate(23.459 14.058)"/><path class="h" d="M2.343,16.4A2.343,2.343,0,0,1,0,14.058V2.342a2.343,2.343,0,0,1,4.685,0V14.058A2.343,2.343,0,0,1,2.343,16.4Zm0,0" transform="translate(23.459 25.774)"/><g transform="translate(0 39.832)"><path class="b" d="M.062,58.575C-.226,54.7.579,44.132.68,40.222S.362,32.071.488,28.272c.18-5.421,3.091-9.109,4.547-14.224A67.336,67.336,0,0,0,6.976,4.114,4.619,4.619,0,0,1,11.55,0h.415s9.121,0,9.121,14.058c.349,1.406-2.342,18.744-7.028,21.087Zm0,0"/><path class="b" d="M21.087,7.028a7.029,7.029,0,0,1-7.03,7.029H7.029A7.029,7.029,0,1,1,7.029,0h7.028A7.029,7.029,0,0,1,21.087,7.028Zm0,0" transform="translate(67.976 18.744)"/><path class="b" d="M18.69,7.028a7.029,7.029,0,0,1-7.03,7.029H6.975a6.485,6.485,0,0,1-2.343-.422A7.029,7.029,0,0,1,6.975,0H11.66a7.029,7.029,0,0,1,7.03,7.028Zm0,0" transform="translate(68.03 32.802)"/><path class="b" d="M16.472,7.029a7.029,7.029,0,0,1-7.03,7.028H7.029A7.029,7.029,0,1,1,7.029,0H9.442A7.029,7.029,0,0,1,16.472,7.029Zm0,0" transform="translate(67.976 46.86)"/></g><path class="c" d="M21.088,2.343a7.062,7.062,0,0,1-3.234,5.928,7.207,7.207,0,0,1-3.8,1.1H7.03A7.056,7.056,0,0,1,0,2.343,6.484,6.484,0,0,1,.422,0,6.954,6.954,0,0,0,7.03,4.686h7.028A6.954,6.954,0,0,0,20.666,0a6.484,6.484,0,0,1,.422,2.343Zm0,0" transform="translate(67.976 63.261)"/><path class="c" d="M18.744,2.342a6.988,6.988,0,0,1-7.029,7.029H6.842A6.636,6.636,0,0,1,4.686,8.95,6.718,6.718,0,0,1,1.8,7.028,6.948,6.948,0,0,1,0,2.342,6.359,6.359,0,0,1,.422.023a6.845,6.845,0,0,0,4.264,4.24,6.485,6.485,0,0,0,2.343.422h4.685A6.955,6.955,0,0,0,18.322,0a6.476,6.476,0,0,1,.422,2.342Zm0,0" transform="translate(67.976 77.32)"/><path class="c" d="M16.472,2.343a7.029,7.029,0,0,1-7.03,7.028H7.03A7.029,7.029,0,0,1,0,2.343,6.479,6.479,0,0,1,.422,0,6.953,6.953,0,0,0,7.03,4.685H9.442A7.005,7.005,0,0,0,16.074,0,7.044,7.044,0,0,1,16.472,2.343Zm0,0" transform="translate(67.976 91.378)"/><path class="c" d="M1.41,34.292a2.613,2.613,0,0,1-.984-3.749c3.359-5.368,5.2-17.727,4.908-18.9C5.334,5.365,3.53,1.9,1.516,0,3.623.3,10,2.249,10,13.987c.31,1.237-1.741,14.817-5.431,19.65a2.539,2.539,0,0,1-3.156.654Zm0,0" transform="translate(11.096 39.902)"/></g><circle class="i" cx="3" cy="3" r="3" transform="translate(146 185)"/><circle class="j" cx="4" cy="4" r="4" transform="translate(209 133)"/><g class="k" transform="translate(278 206)"><circle class="o" cx="5.5" cy="5.5" r="5.5"/><circle class="p" cx="5.5" cy="5.5" r="4.75"/></g><g class="k" transform="translate(275 164)"><circle class="o" cx="1.5" cy="1.5" r="1.5"/><circle class="p" cx="1.5" cy="1.5" r="0.75"/></g><g transform="translate(218.374 185.206) rotate(30)"><path d="M12.449,6.4H11.382V4.98a4.98,4.98,0,0,0-9.959,0V6.4H.356A.355.355,0,0,0,0,6.758V15.65a1.424,1.424,0,0,0,1.423,1.423h9.959A1.424,1.424,0,0,0,12.8,15.65V6.758A.355.355,0,0,0,12.449,6.4Zm-4.982,7.43a.356.356,0,0,1-.354.395H5.691a.356.356,0,0,1-.354-.395l.224-2.018A1.407,1.407,0,0,1,4.98,10.67a1.423,1.423,0,1,1,2.845,0,1.407,1.407,0,0,1-.582,1.144ZM9.248,6.4H3.557V4.98a2.845,2.845,0,1,1,5.691,0Z"/></g><g transform="translate(254.15 139.45)"><circle class="l" cx="21.5" cy="21.5" r="21.5" transform="translate(-0.15 -0.45)"/><circle class="m" cx="3.5" cy="3.5" r="3.5" transform="translate(5.85 18.55)"/><circle class="m" cx="3.5" cy="3.5" r="3.5" transform="translate(16.85 18.55)"/><circle class="m" cx="3.5" cy="3.5" r="3.5" transform="translate(27.85 18.55)"/><path class="l" d="M8,0l8,16H0Z" transform="translate(3.85 26.55)"/></g><g class="n" transform="translate(182 164)"><path class="o" d="M 2 3.292900085449219 L 0.707099974155426 2 L 2 0.707099974155426 L 3.292900085449219 2 L 2 3.292900085449219 Z"/><path class="q" d="M 2 1.414220094680786 L 1.414220094680786 2 L 2 2.585780143737793 L 2.585780143737793 2 L 2 1.414220094680786 M 2 0 L 4 2 L 2 4 L 0 2 L 2 0 Z"/></g></g></svg>