<svg xmlns="http://www.w3.org/2000/svg" width="9.656" height="17.604" viewBox="0 0 9.656 17.604"><defs></defs><g transform="translate(-113.692)"><g transform="translate(113.692)"><path class="a" d="M121.509,0h-5.947a1.869,1.869,0,0,0-1.87,1.835V15.771a1.851,1.851,0,0,0,1.852,1.833L121.5,17.6a1.839,1.839,0,0,0,1.838-1.833l.009-13.93A1.836,1.836,0,0,0,121.509,0Zm-3.833,1.1H119.4a.275.275,0,1,1,0,.55h-1.725a.275.275,0,0,1,0-.55Zm-1.037.088a.285.285,0,0,1,.389,0,.276.276,0,0,1-.194.47.282.282,0,0,1-.2-.081.277.277,0,0,1,0-.389Zm1.844,15.871a.823.823,0,1,1,.823-.823A.824.824,0,0,1,118.484,17.059Zm4.01-2.206h-7.839V2.613h7.839Z" transform="translate(-113.692)"/></g></g></svg>